<svg width="132" height="72" viewBox="0 0 132 72" fill="none" xmlns="http://www.w3.org/2000/svg">
<path d="M0 6C0 2.68629 2.68629 0 6 0H126C129.314 0 132 2.68629 132 6V72H0V6Z" fill="#0067D2"/>
<g clip-path="url(#clip0_280_5919)">
<path d="M65.9998 25.5C62.2123 25.5 59.1795 27.225 56.9717 29.2781C54.7779 31.3125 53.3107 33.75 52.617 35.4234C52.4623 35.7937 52.4623 36.2062 52.617 36.5766C53.3107 38.25 54.7779 40.6875 56.9717 42.7219C59.1795 44.775 62.2123 46.5 65.9998 46.5C69.7873 46.5 72.8201 44.775 75.0279 42.7219C77.2217 40.6828 78.6889 38.25 79.3873 36.5766C79.542 36.2062 79.542 35.7937 79.3873 35.4234C78.6889 33.75 77.2217 31.3125 75.0279 29.2781C72.8201 27.225 69.7873 25.5 65.9998 25.5ZM59.2498 36C59.2498 34.2098 59.961 32.4929 61.2268 31.227C62.4927 29.9612 64.2096 29.25 65.9998 29.25C67.79 29.25 69.5069 29.9612 70.7728 31.227C72.0386 32.4929 72.7498 34.2098 72.7498 36C72.7498 37.7902 72.0386 39.5071 70.7728 40.773C69.5069 42.0388 67.79 42.75 65.9998 42.75C64.2096 42.75 62.4927 42.0388 61.2268 40.773C59.961 39.5071 59.2498 37.7902 59.2498 36ZM65.9998 33C65.9998 34.6547 64.6545 36 62.9998 36C62.667 36 62.3482 35.9437 62.0482 35.8453C61.7904 35.7609 61.4904 35.9203 61.4998 36.1922C61.5139 36.5156 61.5607 36.8391 61.6498 37.1625C62.292 39.5625 64.7623 40.9875 67.1623 40.3453C69.5623 39.7031 70.9873 37.2328 70.3451 34.8328C69.8248 32.8875 68.1045 31.5797 66.192 31.5C65.9201 31.4906 65.7607 31.7859 65.8451 32.0484C65.9436 32.3484 65.9998 32.6672 65.9998 33Z" fill="white"/>
</g>
<defs>
<clipPath id="clip0_280_5919">
<rect width="27" height="24" fill="white" transform="translate(52.5 24)"/>
</clipPath>
</defs>
</svg>
