<svg width="132" height="72" viewBox="0 0 132 72" fill="none" xmlns="http://www.w3.org/2000/svg">
<path d="M0 6C0 2.68629 2.68629 0 6 0H126C129.314 0 132 2.68629 132 6V72H0V6Z" fill="#0067D2"/>
<path d="M55.5579 31.2993V36.1693H57.4216L62.2916 31.2993H55.5579Z" fill="white"/>
<path d="M55.5579 24.6311V29.6774H63.9139L64.2114 29.3787V24.63L64.2101 24.6312C64.2101 24.4637 64.1439 24.3025 64.0264 24.185C63.9076 24.0662 63.7476 24 63.5801 24H56.1876C55.8389 24 55.5579 24.2824 55.5579 24.6311Z" fill="white"/>
<path d="M56.1256 37.7886C55.8106 37.7886 55.5569 38.0424 55.5569 38.3573V40.3235L54.1669 41.7148C53.9444 41.9373 53.9444 42.2948 54.1669 42.5173L55.5569 43.9072V45.8734C55.5569 46.1884 55.8106 46.4422 56.1256 46.4422H58.0918L59.483 47.8334C59.7055 48.0559 60.063 48.0559 60.2855 47.8334L61.6767 46.4422H64.2117V37.7886L56.1256 37.7886ZM59.8868 40.0973C60.998 40.0973 61.9105 41.0023 61.9105 42.1135C61.9105 43.2248 60.998 44.1347 59.8868 44.1347C58.7756 44.1347 57.8656 43.2247 57.8656 42.1135C57.8656 41.0023 58.7756 40.0985 59.8868 40.0973ZM59.8868 41.0935C59.3168 41.0935 58.8618 41.5485 58.8618 42.1185C58.8618 42.6885 59.3168 43.1385 59.8868 43.1385C60.4568 43.1385 60.9068 42.6898 60.9068 42.1185C60.9068 41.5485 60.4581 41.0935 59.8868 41.0935Z" fill="white"/>
<path d="M64.4731 31.4067L61.0293 34.8505L62.348 36.1692H69.2353L64.4731 31.4067Z" fill="white"/>
<path d="M70.7013 37.7896H65.8313V46.4432H70.7013V37.7896Z" fill="white"/>
<path d="M69.1889 26.6924L65.6204 30.2609L71.5291 36.1696H71.9503L75.3077 32.8122V32.811C75.5539 32.5647 75.5539 32.166 75.3077 31.9197L70.0802 26.6923C69.9627 26.5736 69.8015 26.5073 69.634 26.5073C69.4678 26.5073 69.3064 26.5736 69.1889 26.6924Z" fill="white"/>
<path d="M77.3688 37.7883H72.3225V46.1443L72.62 46.4431H77.3687V46.4418C77.5362 46.4418 77.6974 46.3756 77.8149 46.2568C77.9337 46.1393 77.9999 45.9781 77.9999 45.8118V38.4193C77.9999 38.0706 77.7176 37.7883 77.3688 37.7883Z" fill="white"/>
</svg>
