<svg width="132" height="72" viewBox="0 0 132 72" fill="none" xmlns="http://www.w3.org/2000/svg">
<path d="M0 6C0 2.68629 2.68629 0 6 0H126C129.314 0 132 2.68629 132 6V72H0V6Z" fill="#0067D2"/>
<path d="M55.5581 31.2988V36.1688H57.4218L62.2918 31.2988H55.5581Z" fill="white"/>
<path d="M55.5579 24.6311V29.6774H63.9139L64.2114 29.3787V24.63L64.2101 24.6312C64.2101 24.4637 64.1439 24.3025 64.0264 24.185C63.9076 24.0662 63.7476 24 63.5801 24H56.1876C55.8389 24 55.5579 24.2824 55.5579 24.6311Z" fill="white"/>
<path d="M56.1256 37.7891C55.8106 37.7891 55.5569 38.0428 55.5569 38.3578V40.324L54.1669 41.7153C53.9444 41.9378 53.9444 42.2953 54.1669 42.5177L55.5569 43.9077V45.8739C55.5569 46.1889 55.8106 46.4427 56.1256 46.4427H58.0918L59.483 47.8339C59.7055 48.0564 60.063 48.0564 60.2855 47.8339L61.6767 46.4427H64.2117V37.7891L56.1256 37.7891ZM59.8868 40.0978C60.998 40.0978 61.9105 41.0028 61.9105 42.114C61.9105 43.2252 60.998 44.1352 59.8868 44.1352C58.7756 44.1352 57.8656 43.2252 57.8656 42.114C57.8656 41.0028 58.7756 40.099 59.8868 40.0978ZM59.8868 41.094C59.3168 41.094 58.8618 41.549 58.8618 42.119C58.8618 42.689 59.3168 43.139 59.8868 43.139C60.4568 43.139 60.9068 42.6903 60.9068 42.119C60.9068 41.549 60.4581 41.094 59.8868 41.094Z" fill="white"/>
<path d="M64.4731 31.4062L61.0293 34.85L62.348 36.1688H69.2353L64.4731 31.4062Z" fill="white"/>
<path d="M70.7015 37.7891H65.8315V46.4427H70.7015V37.7891Z" fill="white"/>
<path d="M69.1892 26.6928L65.6206 30.2614L71.5293 36.1701H71.9505L75.3079 32.8127V32.8115C75.5542 32.5652 75.5542 32.1665 75.3079 31.9202L70.0805 26.6928C69.963 26.5741 69.8017 26.5078 69.6343 26.5078C69.468 26.5078 69.3067 26.5741 69.1892 26.6928Z" fill="white"/>
<path d="M77.3686 37.7873H72.3223V46.1434L72.6198 46.4421H77.3685V46.4408C77.536 46.4408 77.6972 46.3746 77.8147 46.2558C77.9334 46.1384 77.9997 45.9771 77.9997 45.8109V38.4184C77.9997 38.0696 77.7173 37.7873 77.3686 37.7873Z" fill="white"/>
</svg>
