<svg width="132" height="72" viewBox="0 0 132 72" fill="none" xmlns="http://www.w3.org/2000/svg">
<path d="M0 5.99999C0 2.68628 2.68629 0 6 0H126C129.314 0 132 2.68629 132 6V71.5153H0V5.99999Z" fill="#0067D2"/>
<path d="M76.8334 32.486V42.2577C76.8334 43.4493 75.8584 44.4243 74.6667 44.4243H57.3334C56.1417 44.4243 55.1667 43.4493 55.1667 42.2577L55.1776 29.2576C55.1776 28.066 56.1417 27.091 57.3334 27.091H68.2751C68.2101 27.4376 68.1667 27.806 68.1667 28.1743C68.1667 28.5426 68.2101 28.911 68.2751 29.2576H57.3334L66.0001 34.6743L69.9759 32.1935C70.4851 32.6593 71.0809 33.0168 71.7417 33.2551L66.0001 36.841L57.3334 31.4243V42.2577H74.6667V33.4826C75.4684 33.3201 76.2051 32.9626 76.8334 32.486ZM70.3334 28.1743C70.3334 29.9726 71.7851 31.4243 73.5834 31.4243C75.3817 31.4243 76.8334 29.9726 76.8334 28.1743C76.8334 26.376 75.3817 24.9243 73.5834 24.9243C71.7851 24.9243 70.3334 26.376 70.3334 28.1743Z" fill="white"/>
</svg>
