<svg width="132" height="72" viewBox="0 0 132 72" fill="none" xmlns="http://www.w3.org/2000/svg">
<path d="M0 6C0 2.68629 2.68629 0 6 0H126C129.314 0 132 2.68629 132 6V72H0V6Z" fill="#0067D2"/>
<path d="M72.5255 32.2391C73.721 31.4222 74.5081 30.0523 74.5081 28.5031C74.5081 26.0224 72.4857 24 70.005 24H62.4981C60.0174 24 58 26.0224 58 28.5031C58 30.0623 58.792 31.4371 59.9975 32.2491C58.792 33.056 58 34.4309 58 35.99C58 37.5492 58.802 38.934 60.0125 39.741C58.802 40.5529 58 41.9328 58 43.4969C58 45.9776 60.0174 48 62.4981 48C64.9788 48 67.0012 45.9776 67.0012 43.4969V39.3176C67.8032 40.0399 68.8643 40.4782 70.0199 40.4782C72.5006 40.4782 74.5181 38.4608 74.5181 35.9751C74.5181 34.4209 73.726 33.0461 72.5255 32.2391ZM65.5069 43.4969C65.5069 45.1557 64.1569 46.5056 62.4981 46.5056C60.8394 46.5056 59.4944 45.1557 59.4944 43.4969C59.4944 41.8381 60.8394 40.4882 62.4981 40.4882H65.5069V43.4969ZM65.5069 38.9938H62.4981C60.8394 38.9938 59.4944 37.6488 59.4944 35.99C59.4944 34.4359 60.675 33.1507 62.1893 32.9963H62.2042C62.3039 32.9863 62.3985 32.9813 62.4981 32.9813H65.5069V38.9938ZM65.5069 31.5118H62.4981C62.3985 31.5118 62.3039 31.5068 62.2042 31.4969H62.1893C60.675 31.3425 59.4944 30.0573 59.4944 28.5031C59.4944 26.8443 60.8394 25.4944 62.4981 25.4944H65.5069V31.5118ZM67.0012 25.4944H70.005C71.6638 25.4944 73.0137 26.8443 73.0137 28.5031C73.0137 30.0423 71.8481 31.3176 70.3537 31.4919C70.2391 31.5069 70.1245 31.5118 70.005 31.5118H67.0012V25.4944ZM70.0199 38.9838C68.3611 38.9838 67.0112 37.6339 67.0112 35.9751C67.0112 34.4658 68.127 33.2154 69.5766 33.0062C69.721 32.9813 69.8705 32.9714 70.0199 32.9714C70.1345 32.9714 70.2491 32.9763 70.3587 32.9913C71.858 33.1557 73.0237 34.4309 73.0237 35.9751C73.0237 37.6339 71.6787 38.9838 70.0199 38.9838Z" fill="white"/>
</svg>
