<svg width="132" height="72" viewBox="0 0 132 72" fill="none" xmlns="http://www.w3.org/2000/svg">
<path d="M0 6C0 2.68629 2.68629 0 6 0H126C129.314 0 132 2.68629 132 6V72H0V6Z" fill="#0067D2"/>
<path d="M78.5 32.55L69.5125 31.775L66 23.5L62.4875 31.7875L53.5 32.55L60.325 38.4625L58.275 47.25L66 42.5875L73.725 47.25L71.6875 38.4625L78.5 32.55ZM66 40.25L61.3 43.0875L62.55 37.7375L58.4 34.1375L63.875 33.6625L66 28.625L68.1375 33.675L73.6125 34.15L69.4625 37.75L70.7125 43.1L66 40.25Z" fill="white"/>
</svg>
