<svg width="132" height="72" viewBox="0 0 132 72" fill="none" xmlns="http://www.w3.org/2000/svg">
<path d="M0 6C0 2.68629 2.68629 0 6 0H126C129.314 0 132 2.68629 132 6V71.9991H0V6Z" fill="#0067D2"/>
<path d="M65.8459 35.9614C69.149 35.9614 71.8266 33.2838 71.8266 29.9807C71.8266 26.6777 69.149 24 65.8459 24C62.5429 24 59.8652 26.6777 59.8652 29.9807C59.8652 33.2838 62.5429 35.9614 65.8459 35.9614Z" fill="white"/>
<path d="M56.3151 44.4103C55.6206 46.108 56.8553 47.9987 58.7074 47.9987H73.2926C75.1447 47.9987 76.3794 46.108 75.6849 44.4103C73.8714 40.0887 70.2058 37.1562 66 37.1562C61.7942 37.1562 58.09 40.0887 56.3151 44.4103Z" fill="white"/>
</svg>
