<svg width="132" height="72" viewBox="0 0 132 72" fill="none" xmlns="http://www.w3.org/2000/svg">
<path d="M0 6C0 2.68629 2.68629 0 6 0H126C129.314 0 132 2.68629 132 6V72H0V6Z" fill="#0067D2"/>
<path d="M72.9999 25H62.9999C61.8999 25 60.9999 25.9 60.9999 27V30H62.9999V28H72.9999V44H62.9999V42H60.9999V45C60.9999 46.1 61.8999 47 62.9999 47H72.9999C74.0999 47 74.9999 46.1 74.9999 45V27C74.9999 25.9 74.0999 25 72.9999 25ZM61.0099 37.47L58.4599 34.92L57.1899 36.19L60.9999 40L68.1899 32.81L66.9199 31.54L61.0099 37.47Z" fill="white"/>
</svg>
