<svg width="132" height="72" viewBox="0 0 132 72" fill="none" xmlns="http://www.w3.org/2000/svg">
<path d="M0 5.99999C0 2.68628 2.68629 0 6 0H126C129.314 0 132 2.68629 132 6V71.5153H0V5.99999Z" fill="#0067D2"/>
<path d="M60.844 41.5658H53.278L51.978 45.2578H48.884L55.358 27.1618H58.79L65.264 45.2578H62.144L60.844 41.5658ZM60.012 39.1478L57.074 30.7498L54.11 39.1478H60.012ZM67.0909 38.0298C67.0909 36.5911 67.3856 35.3171 67.9749 34.2078C68.5816 33.0985 69.3962 32.2405 70.4189 31.6338C71.4589 31.0098 72.6029 30.6978 73.8509 30.6978C74.9776 30.6978 75.9569 30.9231 76.7889 31.3738C77.6382 31.8071 78.3142 32.3531 78.8169 33.0118V30.9318H81.8069V45.2578H78.8169V43.1258C78.3142 43.8018 77.6296 44.3651 76.7629 44.8158C75.8962 45.2665 74.9082 45.4918 73.7989 45.4918C72.5682 45.4918 71.4416 45.1798 70.4189 44.5558C69.3962 43.9145 68.5816 43.0305 67.9749 41.9038C67.3856 40.7598 67.0909 39.4685 67.0909 38.0298ZM78.8169 38.0818C78.8169 37.0938 78.6089 36.2358 78.1929 35.5078C77.7942 34.7798 77.2656 34.2251 76.6069 33.8438C75.9482 33.4625 75.2376 33.2718 74.4749 33.2718C73.7122 33.2718 73.0016 33.4625 72.3429 33.8438C71.6842 34.2078 71.1469 34.7538 70.7309 35.4818C70.3322 36.1925 70.1329 37.0418 70.1329 38.0298C70.1329 39.0178 70.3322 39.8845 70.7309 40.6298C71.1469 41.3751 71.6842 41.9471 72.3429 42.3458C73.0189 42.7271 73.7296 42.9178 74.4749 42.9178C75.2376 42.9178 75.9482 42.7271 76.6069 42.3458C77.2656 41.9645 77.7942 41.4098 78.1929 40.6818C78.6089 39.9365 78.8169 39.0698 78.8169 38.0818Z" fill="white"/>
</svg>
